HIERARCHY
ROOT Hips
{
	OFFSET	0	0	0
	CHANNELS 6  Xposition Yposition Zposition Xrotation Yrotation Zrotation
	JOINT Spine
	{
		OFFSET	0	7.0817	1.42564
		CHANNELS 3  Xrotation Yrotation Zrotation
		JOINT Spine1
		{
			OFFSET	0	12.1578	-2.17103
			CHANNELS 3  Xrotation Yrotation Zrotation
			JOINT Spine2
			{
				OFFSET	0	9.21601	0.987817
				CHANNELS 3  Xrotation Yrotation Zrotation
				JOINT Spine3
				{
					OFFSET	0	11.0288	3.27825
					CHANNELS 3  Xrotation Yrotation Zrotation
					JOINT Spine4
					{
						OFFSET	0	16.3261	-1.67169
						CHANNELS 3  Xrotation Yrotation Zrotation
						JOINT Neck
						{
							OFFSET	0	7.79399	-5.46013
							CHANNELS 3  Xrotation Yrotation Zrotation
							JOINT Head
							{
								OFFSET	0	9.35713	-2.80063
								CHANNELS 3  Xrotation Yrotation Zrotation
								End Site
								{
									OFFSET	0	19.5175	-0.944397
								}
							}
						}
					}
					JOINT LeftShoulder
					{
						OFFSET	-4.68942	19.8432	-9.35713
						CHANNELS 3  Xrotation Yrotation Zrotation
						JOINT LeftArm
						{
							OFFSET	-10.2519	-2.80063	3.59307
							CHANNELS 3  Xrotation Yrotation Zrotation
							JOINT LeftForeArm
							{
								OFFSET	-34.1249	-1.55752	2.4358
								CHANNELS 3  Xrotation Yrotation Zrotation
								JOINT LeftHand
								{
									OFFSET	-28.1809	-1.94746	2.01152
									CHANNELS 3  Xrotation Yrotation Zrotation
									End Site
									{
										OFFSET	-10.2846	-0.710727	0.734058
									}
								}
							}
						}
					}
					JOINT RightShoulder
					{
						OFFSET	4.68942	19.8432	-9.35713
						CHANNELS 3  Xrotation Yrotation Zrotation
						JOINT RightArm
						{
							OFFSET	10.2519	-2.80063	3.59307
							CHANNELS 3  Xrotation Yrotation Zrotation
							JOINT RightForeArm
							{
								OFFSET	34.1249	-1.55752	2.4358
								CHANNELS 3  Xrotation Yrotation Zrotation
								JOINT RightHand
								{
									OFFSET	28.1809	-1.94746	2.01152
									CHANNELS 3  Xrotation Yrotation Zrotation
									End Site
									{
										OFFSET	10.2846	-0.710727	0.734058
									}
								}
							}
						}
					}
				}
			}
		}
	}
	JOINT LeftUpLeg
	{
		OFFSET	-9.64475	-3.54085	-0.712821
		CHANNELS 3  Xrotation Yrotation Zrotation
		JOINT LeftLeg
		{
			OFFSET	-2.14734	-42.0762	-0.657743
			CHANNELS 3  Xrotation Yrotation Zrotation
			JOINT LeftFoot
			{
				OFFSET	-2.09898	-38.6909	3.32741
				CHANNELS 3  Xrotation Yrotation Zrotation
				JOINT LeftToeBase
				{
					OFFSET	0	-4.81787	-12.7963
					CHANNELS 3  Xrotation Yrotation Zrotation
					End Site
					{
						OFFSET	0	-1.92715	-7.70859
					}
				}
			}
		}
	}
	JOINT RightUpLeg
	{
		OFFSET	9.64475	-3.54085	-0.712821
		CHANNELS 3  Xrotation Yrotation Zrotation
		JOINT RightLeg
		{
			OFFSET	2.14734	-42.0762	-0.657743
			CHANNELS 3  Xrotation Yrotation Zrotation
			JOINT RightFoot
			{
				OFFSET	2.09898	-38.6909	3.32741
				CHANNELS 3  Xrotation Yrotation Zrotation
				JOINT RightToeBase
				{
					OFFSET	0	-4.81787	-12.7963
					CHANNELS 3  Xrotation Yrotation Zrotation
					End Site
					{
						OFFSET	0	-1.92715	-7.70859
					}
				}
			}
		}
	}
}
MOTION
Frames: 18
Frame Time: 0.020408
 225.569 88.8242 -117.5 83.6982 82.7248 -72.7803 0.000528264 0.0191259 -1.58213 174.99 179.962 177.363 175.386 179.885 177.363 177.837 179.981 178.418 175.581 179.959 179.474 172.246 -163.112 169.791 177.453 -157.35 174.985 176.441 -153.064 172.252 172.655 -168.197 -94.4445 4.16328 -58.3866 1.75797 -0 112.109 101.682 0.7072 2.73187 -1.39593 147.598 140.219 112.122 66.4896 19.8328 -34.4105 -0 6.55416 -17.5903 148.433 164.059 -176.174 8.5262 -8.43389 -2.05359 9.01764 -1.5 -6.34179 12.5158 0 0 19.7666 18.5219 -24.0042 164.579 -163.697 179.945 171.661 -179.989 -174.087 4.58405 0 0
 225.046 88.874 -117.837 93.2056 83.0734 -82.2096 0.00070625 0.0244249 -1.65625 175.018 179.951 177.24 175.436 179.854 177.24 177.917 179.976 178.344 175.448 179.956 179.45 171.76 -164.283 169.811 177.356 -159.264 175.172 176.589 -152.2 172.576 172.346 -168.633 -95.1514 4.72244 -57.5924 2.28732 -0 113.682 102.974 0.909512 2.52045 -1.79238 146.956 140.606 112.326 67.7601 19.4675 -35.6457 -0 8.4479 -17.6242 148.566 164.199 -176.937 8.62056 -8.18908 -1.90518 9.1069 -1.08104 -5.53534 12.6706 0 0 19.7789 18.149 -24.0345 164.306 -163.476 179.56 172.095 -179.91 -173.287 4.63285 0 0
 224.243 88.9731 -117.88 99.5255 83.5286 -88.2594 0.000967077 0.0303599 -1.82447 175.062 179.939 176.959 175.481 179.818 176.959 177.943 179.97 178.176 175.468 179.952 179.394 171.666 -165.783 169.716 177.407 -162.098 175.44 176.577 -151.625 172.551 172.234 -168.398 -95.5511 4.73501 -56.9276 2.28644 -0 115.172 103.974 1.05526 2.25293 -2.07524 145.969 141.229 112.987 68.7773 19.0808 -36.4483 -0 9.97902 -17.6955 148.817 164.267 -177.58 8.43143 -8.47935 -1.81424 9.18754 -1.1792 -5.69675 12.7144 0 0 19.9565 17.6839 -24.2863 163.792 -163.153 179.627 172.814 -179.891 -173.195 4.65635 0 0
 223.435 89.0928 -117.739 101.899 83.9228 -90.3235 180 -179.994 177.896 175.124 -179.988 176.493 175.508 -179.965 176.493 177.905 -179.994 177.896 175.68 179.947 179.301 172.09 -166.629 169.196 177.606 -164.325 175.539 176.486 -151.591 172.351 172.564 -168.604 -95.9659 4.3706 -56.2341 1.89339 -0 116.774 105.049 1.13277 2.74213 -2.23663 145.167 140.935 113.488 70.1407 18.9886 -38.6355 -0 11.6107 -18.1803 149.006 164.521 -178.169 8.09438 -8.69007 -1.35646 9.25218 -1.12944 -6.47349 12.7321 0 0 19.9402 17.1762 -24.377 163.343 -163.008 179.413 173.44 179.933 -173.214 4.67242 0 0
 222.238 89.4554 -117.404 107.776 84.3675 -95.7299 0.000439375 0.0105815 -2.37773 175.183 179.979 176.037 175.581 179.937 176.037 177.973 179.989 177.622 175.629 179.94 179.21 171.842 -167.519 169.142 177.561 -165.898 175.676 176.413 -152.739 172.189 172.28 -169.721 -96.0798 3.86313 -55.2324 1.38169 -0 118.395 106.315 0.924942 2.86066 -1.82779 142.94 141.057 114.72 71.1727 18.8045 -39.6815 -0 12.8578 -18.2363 149.863 164.213 -178.655 7.22625 -8.56019 -1.41286 9.10505 -0.89305 -6.03094 12.8967 0 0 19.6847 16.9354 -24.3223 163.091 -162.821 178.906 174.124 179.865 -172.704 4.71765 0 0
 221.274 89.9849 -116.607 119.021 84.4263 -106.938 0.000248908 0.00549105 -2.59543 175.271 179.989 175.674 175.645 179.967 175.674 177.963 179.995 177.405 175.821 179.937 179.137 172.276 -168.115 169.253 177.716 -167.125 175.833 176.158 -153.537 171.632 172.219 -170.593 -95.8332 4.79838 -55.2214 2.20709 -0 119.916 108.176 0.60298 3.11234 -1.19377 141.163 141.491 116.311 72.2053 18.4427 -40.9529 -0 14.0666 -17.9479 150.451 163.908 -178.755 6.17459 -8.76878 -1.22048 8.44913 -0.847996 -6.10956 13.0044 0 0 18.8093 16.5882 -23.5733 163.382 -162.7 178.943 174.54 179.84 -172.902 4.7515 0 0
 220.401 90.2601 -116.494 114.21 85.1029 -102.121 180 -179.996 177.246 175.426 -179.992 175.41 175.825 -179.976 175.41 178.15 -179.996 177.246 175.678 179.931 179.085 171.726 -168.612 169.421 177.549 -167.634 175.92 176.21 -154.368 171.748 171.492 -171.013 -95.0961 6.49572 -54.9335 3.74625 -0 121.409 110.502 1.00434 3.22764 -1.99054 139.939 142.171 117.49 73.0862 17.8048 -41.2789 -0 15.5294 -17.4361 151.115 163.729 -178.636 4.96882 -8.60303 -0.928389 8.03937 -0.39779 -6.24499 13.1158 0 0 18.0073 16.1888 -23.2403 163.974 -162.987 178.712 174.823 179.778 -172.545 4.76882 0 0
 219.436 90.5208 -116.293 100.301 85.6369 -88.463 179.999 -179.98 177.176 175.514 -179.961 175.294 175.923 -179.882 175.294 178.255 -179.98 177.176 175.604 179.928 179.062 171.513 -169.055 170.439 177.456 -167.515 176.178 176.051 -154.518 171.4 169.554 -171.157 -95.3706 7.46636 -53.6565 4.37219 -0 122.949 112.653 1.20143 3.54367 -2.38732 139.321 142.645 118.589 73.5535 16.9909 -40.932 -0 16.4638 -16.756 151.669 163.53 -178.228 3.63057 -8.62126 -0.554313 6.6424 -0.255716 -6.40995 13.197 0 0 16.8712 15.9069 -23.051 164.849 -163.721 179.21 175.009 179.538 -172.546 4.78399 0 0
 218.811 90.5049 -116.809 94.1892 86.1211 -82.1128 179.998 -179.961 177.128 175.609 -179.922 175.214 176.018 -179.765 175.214 178.34 -179.961 177.128 175.588 179.926 179.046 171.456 -169.878 171.804 177.416 -167.904 176.582 175.968 -154.166 171.218 168.408 -171.684 -96.2929 8.51967 -51.9938 5.07058 -0 124.45 115.109 1.20888 3.7021 -2.40506 140.241 142.659 118.467 74.4429 16.7025 -41.6196 -0 17.4244 -16.5855 152.801 163.54 -178.555 2.18118 -8.37359 -0.870481 10.4288 -0.524697 -8.18394 13.1782 0 0 16.4596 15.474 -23.8396 165.908 -164.239 179.788 175.008 179.626 -172.165 4.77997 0 0
 217.825 90.5321 -116.921 106.563 86.4172 -94.4593 179.999 -179.981 177.071 175.727 -179.962 175.118 176.148 -179.886 175.118 178.435 -179.981 177.071 175.585 179.925 179.027 171.389 -171.12 173.177 177.39 -169.071 177.067 176.015 -154.588 171.322 168.414 -173.419 -97.0236 10.7231 -50.1518 6.55212 -0 125.799 118.548 1.11957 3.62442 -2.22592 138.978 142.874 118.411 74.697 16.3389 -41.257 -0 18.193 -16.4895 153.507 163.626 -179.35 0.703752 -8.72872 -0.633219 11.0648 -0.734037 -8.28718 13.2748 0 0 15.4802 15.1581 -23.6664 166.898 -164.506 179.759 175.662 179.834 -171.835 4.77292 0 0
 216.772 90.5684 -117.101 108.443 86.7382 -96.3366 179.998 -179.966 177.053 175.909 -179.933 175.089 176.295 -179.799 175.089 178.466 -179.966 177.053 175.859 179.929 179.02 172.011 -171.852 173.886 177.583 -170.041 177.365 176 -155.038 171.293 167.901 -174.685 -97.063 13.2301 -48.2941 8.35381 -0 127.077 122.347 1.16883 3.44599 -2.32073 139.107 143.197 118.382 75.3443 16.2451 -41.9265 -0 18.9819 -16.5337 154.159 163.783 -179.971 179.227 -170.799 179.634 11.6369 -0.671709 -8.58273 13.3578 0 0 14.5849 15.3912 -23.7407 167.975 -164.837 179.775 176.066 179.915 -171.509 4.77143 0 0
 215.743 90.5629 -117.012 107.533 87.5 -95.2961 179.998 -179.962 176.938 176.159 -179.925 174.897 176.522 -179.775 174.897 178.572 -179.962 176.938 176.086 179.93 178.982 172.412 -172.431 174.109 177.714 -171.036 177.528 176.118 -155.786 171.555 167.571 -175.789 -97.1089 16.4205 -46.7408 10.5084 -0 128.348 126.756 1.0193 3.7168 -2.02787 138.415 143.106 117.987 75.9544 16.1914 -43.1231 -0 19.828 -16.7373 155.128 164.042 179.798 177.474 -170.414 179.459 12.3676 -0.603033 -8.91769 13.4448 0 0 13.8922 15.3257 -23.7342 169.231 -165.397 179.826 176.477 179.946 -171.425 4.7611 0 0
 214.88 90.9716 -116.084 125.213 87.7849 -113.222 179.999 -179.987 176.825 176.33 -179.973 174.708 176.69 -179.92 174.708 178.651 -179.987 176.825 176.218 179.93 178.944 172.606 -173.141 174.082 177.788 -172.414 177.655 176.436 -155.821 172.251 167.556 -175.701 -96.6085 18.689 -43.8169 11.6899 -0 129.692 130.95 0.20042 4.60989 -0.401297 137.543 143.044 118.379 76.731 16.1579 -44.5301 -0 20.3337 -16.598 155.908 164.251 -179.673 176.307 -170.538 179.102 11.5377 -0.660528 -8.8876 13.5491 0 0 11.7592 14.2829 -21.9048 171.523 -166.363 179.244 176.125 179.946 -171.47 4.76853 0 0
 214.016 91.3415 -115.827 123.487 88.0289 -112.218 179.999 -179.982 176.949 176.477 -179.965 174.916 176.846 -179.894 174.916 178.778 -179.982 176.949 176.202 179.933 178.985 172.382 -173.659 173.639 177.738 -173.67 177.652 176.44 -155.649 172.259 166.98 -175.157 -96.7658 20.2067 -40.7546 11.8294 -0 130.94 134.579 0.270413 5.45906 -0.544762 137.144 142.699 118.627 76.9745 15.9157 -44.7376 -0 20.5065 -16.3261 156.927 164.016 -178.924 173.712 -171.096 178.983 10.9721 -0.775318 -8.62414 13.6284 0 0 9.99941 14.4694 -20.8681 173.623 -167.094 179.485 175.613 179.973 -171.35 4.78259 0 0
 212.826 91.5869 -115.463 112.208 88.2736 -101.49 179.998 -179.964 176.979 176.635 -179.928 174.965 177.033 -179.783 174.965 178.992 -179.964 176.979 176.003 179.93 178.995 171.643 -174.151 173.422 177.523 -174.544 177.675 176.575 -155.71 172.555 166.169 -174.438 -96.6657 21.364 -38.0536 11.8564 -0 132.075 137.776 0.0374349 6.07466 -0.0757355 136.625 142.818 119.296 77.0875 15.5257 -44.4305 -0 20.5692 -15.7299 157.567 163.983 -178.064 171.151 -171.921 178.755 9.78125 -0.881398 -8.47392 13.7121 0 0 8.18074 13.5456 -19.8019 174.565 -167.891 179.47 175.889 179.708 -171.548 4.7845 0 0
 211.569 91.9127 -114.847 94.9541 87.9682 -85.1644 179.999 -179.974 176.999 176.655 -179.949 174.998 177.096 -179.846 174.998 179.122 -179.974 176.999 175.736 179.926 179.002 170.875 -174.823 173.731 177.292 -175.327 177.835 176.895 -155.693 173.253 165.082 -173.67 -96.6529 21.8545 -34.7794 11.0607 -0 133.442 140.607 179.995 173.163 -179.991 136.178 142.674 119.536 77.0445 14.9997 -43.557 -0 20.5388 -14.9313 159.072 163.734 -177.38 166.229 -173.089 179.218 6.59417 -0.610655 -8.19237 13.7314 0 0 5.78177 13.2277 -18.372 175.694 -168.51 179.646 176.147 179.5 -171.696 4.80588 0 0
 209.3 92.3537 -113.681 81.415 86.7471 -73.0841 179.999 -179.984 177.115 176.635 -179.968 175.191 177.133 -179.904 175.191 179.268 -179.984 177.115 175.356 179.922 179.041 169.847 -175.796 174.684 176.974 -176.152 178.174 177.46 -156.404 174.488 164.221 -172.916 -96.2584 22.5067 -31.9291 10.5996 -0 134.857 143.466 179.797 172.597 -179.586 134.999 142.98 119.846 76.9135 14.2958 -41.7412 -0 20.3865 -13.6453 161.677 162.933 -177.708 158.466 -174.719 -179.962 167.225 -179.947 172.344 13.6274 0 0 2.05348 13.2868 -15.9385 176.293 -169.038 179.645 177.305 179.389 -171.799 4.83568 0 0
 208.609 92.438 -113.384 80.5507 86.4397 -73.0365 179.999 -179.973 177.19 176.688 -179.947 175.317 177.212 -179.84 175.317 179.391 -179.973 177.19 175.171 179.921 179.067 169.299 -176.452 175.709 176.8 -176.508 178.485 177.535 -156.741 174.653 164.027 -172.357 -96.5604 22.7026 -29.0076 9.55411 -0 136.562 145.854 179.898 171.641 -179.791 135.092 142.862 119.642 77.1149 13.919 -41.2805 -0 20.3002 -12.6987 164.297 162.012 -177.819 152.295 -175.674 -179.794 160.475 -179.985 172.465 13.6999 0 0 0.381453 12.3678 -14.6575 177.025 -169.436 179.45 177.608 179.289 -171.791 4.83582 0 0
